P2
# sample.pgm
59 81
255
251 245 239 244 251 247 241 243 251 245 239 244 251 247 241 243 250 249 239 243 251 247 239 245 250 247 240 245 253 245 238 247 249 247 240 243 248 250 244 241 251 247 240 246 249 246 241 243 250 248 240 242 252 247 239 244 250 245 242
254 247 238 243 253 246 237 243 254 247 238 243 253 246 237 243 252 249 238 241 255 247 238 241 255 248 238 242 253 250 240 238 254 251 238 244 253 246 235 243 252 249 234 240 255 249 236 240 254 247 239 243 252 246 238 242 254 248 240
241 244 249 247 241 244 249 247 241 244 249 247 241 244 249 247 241 244 247 245 223 224 229 228 220 226 229 227 224 223 225 231 222 221 228 228 221 222 228 243 238 249 253 246 238 241 252 248 242 242 250 249 239 243 251 245 241 245 249
235 244 253 247 237 244 253 249 235 244 253 247 237 244 253 249 237 242 254 250 6 0 4 1 0 0 0 0 0 1 1 0 1 1 1 3 0 3 1 178 239 239 249 250 238 241 255 247 236 243 253 248 236 244 254 248 235 243 253
250 248 241 242 251 247 240 243 250 248 241 242 251 247 240 243 249 248 238 245 6 2 0 1 1 0 2 2 0 0 0 0 1 1 1 1 1 1 2 183 249 246 242 245 250 247 242 241 250 249 240 242 252 247 238 244 251 246 241
254 246 238 244 252 247 239 242 254 246 238 244 252 247 239 242 254 247 236 241 9 0 1 1 1 1 1 2 1 1 2 2 1 2 0 2 1 2 4 174 255 248 236 240 253 249 232 245 254 248 238 243 254 247 237 243 255 246 238
242 243 249 248 240 244 251 246 242 243 249 248 240 244 251 246 206 31 36 37 60 62 60 91 97 98 98 98 96 96 96 97 98 93 101 93 65 62 58 44 35 33 146 251 239 243 252 247 242 243 249 248 241 244 250 247 242 244 247
235 246 254 246 237 244 252 249 235 246 254 246 237 244 252 249 194 4 0 1 68 68 72 99 112 114 113 112 113 114 113 113 115 112 115 110 70 74 70 19 0 1 131 250 237 244 252 249 236 244 254 248 236 243 254 248 236 244 253
251 244 242 245 248 245 243 242 250 247 240 245 249 247 241 244 206 1 1 1 68 68 72 101 112 112 112 112 112 112 112 112 113 111 114 111 73 74 67 20 1 3 125 243 252 247 243 243 249 247 240 245 251 247 240 244 250 245 242
251 248 238 241 254 247 237 245 254 245 238 243 255 192 83 86 88 46 46 46 97 99 96 109 113 113 113 113 113 113 113 113 112 115 113 112 98 97 97 60 45 47 66 86 90 136 234 245 255 249 238 243 250 246 240 243 253 247 239
240 246 249 245 243 245 247 247 238 248 249 246 242 147 2 1 10 73 68 69 108 111 113 113 113 113 113 113 113 113 113 113 110 116 112 111 114 112 115 81 75 68 31 4 1 77 251 247 239 243 251 245 244 245 247 246 241 245 248
237 242 254 249 235 244 255 247 240 240 254 246 233 149 1 1 10 72 70 74 113 112 115 111 114 113 113 113 113 113 113 113 112 112 114 111 113 113 114 81 71 70 36 1 0 81 254 245 241 241 252 250 238 240 255 249 235 244 253
250 245 241 244 249 247 242 243 251 242 185 143 141 102 30 32 42 87 88 87 97 96 93 94 94 94 93 93 93 93 94 94 95 92 96 95 94 93 93 89 86 89 58 25 29 68 139 144 151 247 241 243 249 246 243 243 250 246 242
253 247 238 243 254 246 237 244 252 249 97 1 2 25 68 69 77 111 112 112 69 71 70 71 71 71 71 71 70 72 72 72 73 71 72 71 73 70 71 101 113 111 91 71 73 48 2 1 30 251 239 240 254 250 235 242 255 246 238
242 245 249 247 242 244 248 247 243 243 105 0 1 30 77 72 81 108 111 116 68 70 71 69 71 72 71 71 71 70 70 70 70 71 70 69 71 70 71 100 111 113 93 69 71 49 1 1 25 246 247 249 240 243 250 249 242 244 248
237 243 253 248 237 245 254 247 236 244 108 1 2 30 77 80 81 112 108 105 99 100 98 99 99 99 99 99 99 97 95 94 96 98 100 98 99 100 100 105 106 109 91 77 83 50 1 1 30 235 255 249 237 242 253 248 235 244 252
248 244 242 246 249 244 242 244 248 248 96 1 2 41 109 114 109 92 89 89 210 210 213 213 212 214 212 213 214 204 192 190 193 215 212 214 216 211 210 126 89 92 104 109 112 77 1 0 29 246 243 245 250 245 238 246 249 248 240
253 251 237 242 254 248 236 241 253 247 103 3 1 43 115 112 107 92 90 92 205 212 214 216 211 214 214 214 214 204 192 190 195 212 211 215 209 217 212 124 89 94 100 113 115 75 1 2 27 249 234 241 254 249 236 241 252 245 237
243 242 246 247 238 245 246 249 241 241 107 1 2 46 110 113 107 88 95 90 210 213 216 209 213 215 214 213 212 204 195 192 198 211 212 216 217 209 216 118 90 93 100 111 114 75 3 2 32 244 247 249 238 243 251 245 244 243 248
236 245 253 246 8 4 8 190 237 246 144 67 71 76 90 88 113 214 205 211 211 211 215 215 212 214 213 213 214 212 208 210 209 216 213 212 210 213 212 212 209 209 147 95 89 84 70 67 84 242 254 247 24 9 1 176 237 245 249
248 247 241 245 4 1 0 197 247 243 143 73 68 76 92 93 107 213 211 216 213 214 211 215 212 212 211 213 214 214 214 216 214 213 214 214 211 219 209 215 212 210 152 90 89 86 68 72 95 243 240 245 21 3 1 174 248 249 240
253 248 238 240 2 0 3 192 254 248 139 70 71 81 90 90 114 211 212 212 213 215 215 212 214 213 213 213 212 212 211 211 211 216 210 209 214 212 212 213 213 215 144 88 93 86 68 71 89 251 236 243 21 1 1 174 252 246 241
218 125 129 125 162 160 161 79 56 58 34 20 17 77 166 168 174 212 215 210 197 197 193 213 214 213 214 214 214 215 215 213 211 195 198 200 126 119 121 188 214 213 201 185 185 128 19 19 24 56 56 56 151 162 158 135 129 131 182
210 86 93 91 205 210 211 44 0 1 1 1 1 71 188 193 195 214 210 214 190 192 191 208 214 211 212 212 211 213 213 211 209 195 189 189 97 90 90 180 214 212 213 214 212 143 1 1 1 3 0 0 194 207 210 127 90 90 172
217 89 92 88 209 209 207 45 1 0 3 3 0 72 190 190 197 212 211 213 191 190 193 209 214 211 212 215 213 211 216 212 212 191 192 190 96 90 90 180 209 215 211 214 216 144 1 1 1 1 2 1 192 209 210 124 93 91 166
212 38 42 42 214 218 221 143 120 120 81 48 49 107 202 205 192 151 149 147 200 203 197 212 213 212 214 214 215 213 211 212 200 137 137 133 153 157 154 149 147 148 182 212 209 160 50 49 59 122 123 118 208 218 220 95 37 40 138
193 1 0 1 225 228 225 226 230 227 150 90 90 134 213 215 192 91 90 88 209 216 210 217 212 215 214 212 211 212 214 214 194 92 87 93 205 207 212 123 89 88 156 215 211 175 90 88 107 224 228 233 226 228 225 69 5 2 122
194 1 1 2 226 228 228 226 227 226 144 88 90 134 212 213 191 90 92 90 209 214 214 210 212 215 210 214 212 213 216 212 196 91 93 90 201 210 208 119 92 91 155 214 212 171 90 91 108 225 226 225 222 226 229 64 0 0 128
209 84 76 75 153 155 153 204 218 220 128 62 63 105 175 171 164 123 119 129 207 209 214 217 216 215 206 203 206 183 144 143 143 128 126 126 212 215 213 127 88 91 148 204 211 168 88 92 102 223 219 222 162 156 154 101 80 82 159
253 247 236 239 2 3 1 168 212 210 90 1 1 33 92 90 110 187 197 188 211 216 216 211 211 210 204 193 192 123 4 1 29 213 208 214 221 227 225 126 91 92 140 189 193 155 90 93 106 205 212 211 17 1 1 174 255 245 239
239 246 251 246 4 1 0 165 211 207 88 0 1 36 89 92 107 192 189 194 213 213 211 213 214 211 203 189 192 125 2 0 30 211 209 205 229 228 226 128 89 93 145 192 191 157 93 88 104 212 207 210 21 4 0 174 244 247 243
239 244 252 244 29 24 27 153 188 187 91 25 21 44 82 79 101 189 192 193 208 211 212 202 200 199 184 172 171 121 24 20 47 213 211 214 222 224 224 137 104 102 137 172 173 150 103 103 111 189 187 189 39 23 25 182 238 238 255
248 245 244 244 246 247 245 49 2 0 124 212 213 132 1 1 32 193 191 193 190 189 192 114 91 91 40 1 1 73 211 208 213 222 228 225 226 227 226 216 209 211 97 1 1 66 213 212 189 1 3 2 223 245 244 244 247 245 243
253 248 238 243 255 246 235 52 0 1 125 212 213 134 1 2 32 187 191 192 192 194 193 113 88 93 37 1 2 71 210 213 213 230 226 226 226 227 227 212 208 206 100 2 1 69 214 211 188 2 1 1 231 248 237 242 254 247 240
245 245 246 246 246 244 245 53 0 0 128 215 212 131 2 0 34 191 195 192 188 192 189 113 94 89 39 0 0 77 205 210 211 226 227 227 226 225 231 215 211 212 99 1 2 68 212 215 189 1 0 1 222 246 246 246 244 245 247
238 243 254 248 235 244 255 52 2 1 122 212 214 165 78 82 70 22 21 20 96 99 107 174 192 198 191 184 187 197 226 224 224 210 210 212 115 106 109 105 103 104 91 77 77 122 213 213 190 1 4 1 212 243 254 249 235 243 251
246 246 244 244 247 246 244 51 1 1 123 215 212 167 92 88 76 2 1 2 92 87 89 181 214 205 210 215 211 215 225 226 222 209 211 206 95 89 90 89 89 94 89 91 93 131 211 217 190 1 0 1 224 248 244 243 248 246 244
252 246 237 242 254 246 237 50 2 2 123 213 212 168 92 92 76 1 1 1 89 93 90 179 209 213 209 209 207 215 225 229 225 211 211 209 99 98 86 89 92 88 93 90 88 131 211 214 190 0 0 1 232 248 236 242 254 247 239
245 244 246 246 244 245 247 51 1 0 129 221 220 149 30 28 53 169 168 166 125 118 120 128 128 131 179 224 221 223 228 226 210 135 126 130 122 120 121 180 196 199 111 30 32 91 222 221 195 0 0 1 223 244 245 248 244 245 246
236 244 254 248 236 243 254 54 1 0 133 224 229 144 0 3 43 254 251 254 141 138 138 101 91 91 165 227 224 228 226 227 208 89 91 93 133 141 139 221 253 253 120 1 1 71 230 225 198 3 1 0 215 245 252 249 236 243 252
246 245 245 244 245 244 248 50 1 1 128 229 226 141 1 1 44 254 252 254 138 140 140 101 91 90 165 225 228 228 226 227 206 93 88 92 135 138 138 223 254 254 120 3 1 71 229 225 199 2 0 1 227 246 243 246 247 246 244
254 248 237 242 255 250 230 137 109 113 117 125 124 80 1 2 41 239 242 240 143 138 134 157 162 162 198 228 229 226 226 226 219 158 164 165 138 135 137 213 240 239 113 1 1 40 126 128 126 107 107 108 241 245 238 243 253 247 239
243 245 248 244 238 244 247 247 247 245 98 3 0 0 2 0 37 226 226 228 139 138 141 227 254 252 236 228 226 224 229 231 229 254 251 254 145 137 141 202 227 227 110 3 0 0 1 0 27 245 248 242 244 245 247 242 245 245 246
240 241 253 250 241 246 252 244 235 244 107 2 1 3 4 0 42 227 223 229 141 139 137 227 253 255 238 226 228 226 226 223 230 253 252 252 143 136 139 206 228 226 105 0 1 3 0 1 28 242 252 251 238 241 255 247 237 244 251
244 246 244 244 246 242 246 246 247 243 134 54 55 32 0 0 31 197 196 199 156 157 156 227 247 246 236 227 227 228 228 229 229 248 250 246 163 161 160 182 195 198 91 1 2 18 52 49 78 247 245 244 243 244 245 247 246 245 244
253 250 238 243 255 248 236 244 255 246 238 243 254 159 2 0 16 91 90 89 221 228 228 225 228 225 227 226 224 225 226 227 225 226 228 226 228 224 225 131 92 90 43 2 0 77 238 245 253 248 238 241 254 248 236 240 253 247 240
244 245 244 243 244 246 245 247 244 246 245 243 245 154 1 0 15 89 91 90 222 227 224 225 228 226 227 229 227 225 228 227 230 222 228 227 227 229 226 126 91 92 39 1 1 80 243 244 246 243 245 248 241 244 248 245 245 246 246
237 244 255 247 240 241 255 246 237 243 251 247 235 148 2 2 18 89 89 92 217 223 229 224 225 226 225 227 226 225 229 224 225 229 223 226 224 223 224 126 89 89 44 3 0 84 253 247 234 243 254 247 237 244 255 245 236 243 251
245 245 246 244 245 245 245 244 245 244 105 2 0 43 111 112 93 1 3 3 1 2 1 162 210 210 210 210 210 210 210 210 211 209 210 209 13 1 2 2 1 2 57 113 112 74 1 1 30 243 246 246 243 248 246 243 245 245 246
255 245 239 242 255 244 239 244 254 247 97 0 0 42 114 110 93 2 0 1 1 2 3 156 210 210 210 210 210 210 210 210 209 209 212 208 15 2 1 0 2 1 59 111 112 78 2 2 30 246 239 240 254 249 235 243 253 247 240
241 246 243 243 246 246 245 245 246 242 104 1 1 44 112 116 93 0 2 3 1 1 4 160 209 209 209 209 209 209 209 209 212 211 209 211 10 4 1 1 2 0 64 111 112 77 2 1 27 245 245 246 244 241 249 245 246 246 245
241 242 255 249 235 240 255 94 48 57 70 88 91 95 113 110 107 56 53 53 54 57 54 91 101 101 101 101 101 101 101 101 98 101 102 97 61 54 54 59 58 55 84 109 112 106 84 91 83 52 55 53 218 244 252 247 236 243 252
241 244 248 245 243 246 247 50 0 3 67 112 113 114 112 114 104 71 70 74 71 69 74 69 70 70 70 70 70 70 70 70 72 73 71 69 72 72 71 71 70 70 94 114 115 114 111 113 100 1 1 1 224 249 244 246 246 245 245
255 247 235 243 255 250 233 50 3 1 63 113 112 113 113 111 105 71 72 69 68 72 70 69 71 71 71 71 71 71 71 71 70 68 71 71 69 70 72 70 70 67 94 112 109 111 116 110 101 1 2 1 229 244 238 240 253 247 239
247 241 247 244 109 107 102 123 126 128 159 178 178 149 101 101 97 83 77 81 72 70 71 70 71 71 71 71 71 71 71 71 69 70 72 73 69 69 69 79 85 81 92 99 99 126 177 179 169 127 125 129 111 110 101 205 246 245 245
236 242 255 246 3 1 1 177 229 225 229 223 226 176 90 90 91 90 93 90 69 73 69 71 71 71 71 71 71 71 71 71 71 72 69 68 75 72 69 86 89 93 89 90 90 136 225 227 226 228 226 225 18 2 0 173 237 243 251
245 244 245 248 0 0 1 178 228 229 226 227 227 176 90 90 92 91 90 93 69 71 68 71 71 71 74 68 72 74 68 71 68 73 70 69 73 70 72 85 91 91 90 90 87 137 229 225 227 225 229 222 20 0 1 173 243 245 246
255 248 236 244 1 3 0 175 221 216 226 229 222 173 83 81 85 96 98 95 77 79 79 78 78 75 100 120 121 120 118 121 117 75 80 76 75 73 80 91 97 99 90 82 83 130 221 226 225 222 219 222 18 3 2 171 255 247 239
246 244 244 245 2 0 1 166 211 209 221 224 226 170 70 76 81 109 116 114 91 88 89 88 91 94 156 210 216 214 213 212 191 91 92 91 92 92 92 106 115 108 90 75 70 120 231 229 221 211 207 210 19 0 1 174 247 246 244
238 242 255 245 3 2 3 165 211 207 219 226 227 167 70 70 77 114 109 110 91 90 90 95 89 89 157 213 214 213 215 214 196 89 89 90 88 90 86 108 111 117 87 71 73 120 228 223 227 205 208 207 19 0 2 175 235 243 252
246 245 245 247 29 27 34 149 180 190 193 196 199 146 66 61 69 111 106 104 97 93 95 85 90 92 158 212 214 212 213 213 196 89 88 88 95 93 94 102 107 108 82 60 60 104 198 201 194 187 188 183 46 30 29 180 244 245 246
253 246 236 242 254 248 238 50 2 3 0 1 1 2 2 1 15 66 72 74 108 110 113 83 70 71 148 211 216 213 211 214 186 70 71 72 106 112 113 83 72 71 33 1 2 2 1 1 1 0 0 1 230 248 234 244 254 247 239
248 246 244 248 246 244 241 51 0 1 2 1 1 0 1 0 13 70 71 68 110 110 114 78 70 68 148 215 215 213 212 213 194 70 71 69 110 114 114 79 67 69 37 3 1 1 0 3 1 5 2 2 229 246 241 244 247 246 244
237 245 253 246 240 242 254 54 1 2 1 0 2 1 0 3 8 74 70 70 112 111 112 82 74 69 151 214 209 211 215 212 192 73 70 68 111 115 107 83 72 73 30 3 0 2 4 1 3 0 2 1 210 242 255 247 236 243 252
243 245 249 246 241 247 246 229 223 221 221 221 220 137 1 1 2 7 7 7 72 75 73 104 108 107 114 125 123 121 126 122 120 109 108 110 78 75 72 26 8 4 4 1 1 72 223 221 221 224 218 223 243 242 248 247 243 245 247
254 247 237 243 255 248 236 242 253 248 238 243 253 158 3 1 1 0 1 1 71 70 73 99 115 112 113 113 112 112 113 112 111 112 113 112 69 72 73 20 1 4 1 0 1 73 239 242 255 244 242 241 252 248 241 238 254 247 239
248 246 243 244 248 245 243 248 248 244 243 244 251 154 1 1 0 3 0 4 70 69 72 103 111 109 115 113 113 114 112 112 116 113 113 111 74 74 66 21 1 1 0 1 1 80 239 246 247 250 241 243 250 244 241 247 247 245 244
236 244 255 248 235 243 254 246 237 244 150 76 72 72 62 63 54 34 33 32 24 22 24 32 38 35 37 36 33 35 37 38 36 34 38 36 21 21 23 30 31 35 49 60 64 65 82 77 92 238 255 247 240 244 255 247 236 244 252
242 245 247 246 245 245 246 246 243 245 103 6 1 33 91 88 88 48 52 52 1 0 0 0 0 1 0 0 2 1 1 1 1 3 1 0 1 3 1 38 55 52 70 88 91 63 1 0 29 244 245 245 245 240 247 244 245 245 246
254 245 237 244 253 246 238 244 252 246 99 0 1 37 90 92 83 47 48 48 2 1 1 2 1 1 0 0 1 1 0 2 1 1 2 1 1 1 0 39 47 49 75 92 85 61 1 2 28 250 238 243 253 247 239 244 254 247 239
249 244 243 245 246 245 244 244 247 250 100 0 4 31 90 90 90 66 69 71 23 23 25 4 0 0 66 114 110 114 115 114 96 0 1 1 23 26 24 54 70 71 77 89 93 60 1 3 30 243 241 245 248 247 240 242 247 245 244
234 247 253 245 239 245 251 249 236 242 107 1 0 36 90 92 88 92 91 92 50 52 47 14 0 0 142 246 238 244 254 247 201 1 2 1 48 47 50 81 88 91 92 90 91 58 3 0 27 241 255 249 234 243 254 249 237 243 251
240 249 249 243 243 246 247 247 244 245 105 2 1 34 91 90 89 90 91 94 48 50 53 8 1 0 138 244 242 244 248 247 209 0 0 1 51 49 49 82 93 90 90 88 91 60 1 0 27 245 246 246 243 245 249 245 241 245 248
255 245 236 245 255 246 237 243 255 244 132 57 62 65 69 70 69 67 67 65 43 37 38 56 59 62 157 244 255 247 239 240 227 61 55 63 38 38 39 57 66 69 69 68 71 65 56 60 84 251 239 240 255 244 239 241 255 247 239
250 244 242 246 249 245 243 245 247 248 244 243 251 153 1 1 1 2 0 2 0 0 0 185 249 244 240 243 250 245 238 246 248 248 242 241 14 1 4 1 0 0 1 1 0 79 239 245 249 244 242 246 246 250 241 244 249 245 241
234 245 255 247 236 244 254 248 238 241 254 248 237 146 0 1 2 1 1 0 0 3 4 185 237 246 255 247 236 245 255 246 238 241 255 246 15 4 0 1 3 1 0 0 1 81 255 249 238 245 252 248 238 240 253 248 235 243 252
243 245 248 246 242 244 247 246 244 240 250 248 240 153 8 6 6 8 4 9 5 5 4 188 242 241 250 248 239 243 250 248 241 244 250 249 20 6 8 7 5 6 5 10 7 81 249 244 241 239 251 246 242 246 245 247 242 246 249
255 246 236 243 254 247 237 243 253 250 232 246 255 245 235 242 252 246 236 241 254 245 237 243 254 248 238 241 255 250 232 243 255 248 235 246 254 246 239 239 253 249 234 240 255 247 240 243 255 249 239 242 254 249 238 241 255 247 239
248 245 242 244 248 246 243 244 246 250 242 242 245 246 246 244 247 246 240 243 250 246 243 244 248 245 243 244 245 244 243 244 249 245 242 241 244 245 244 242 246 245 243 246 248 247 242 242 249 245 239 246 249 242 243 245 249 244 241
237 242 254 249 235 242 254 247 236 241 254 247 238 245 251 247 238 243 254 247 235 244 253 249 237 245 252 249 238 243 254 248 237 244 255 244 240 241 253 248 237 241 255 248 238 241 255 249 238 241 255 248 235 245 254 247 235 244 253
242 245 249 246 242 245 249 246 242 243 250 246 242 243 250 246 242 243 250 246 242 243 250 246 242 243 250 246 242 243 250 246 242 243 250 246 242 243 250 246 242 243 250 246 242 243 250 246 242 244 249 248 241 244 249 247 242 244 249
